poster: 
http://imgh.us/MIB3+Keyart.jpg


Agent J travels in time to MIB's early
years in the 1960s, to stop an alien
from assassinating his friend Agent
K and changing history.

Director:
Barry Sonnenfeld

Writers:
Etan Cohen, Lowell Cunningham (Malibu comic)

Stars:
Will Smith, Tommy Lee Jones and Josh Brolin
 
http://www.imdb.com/title/tt1409024/ 

General
Complete name : /mnt/sdc1/rahulraj/files/Men.In.Black.3.2012.HD.TS.720p.XviD.AC3-XTREME/Men.In.Black.3.2012.HD.TS.720p.XviD.AC3-XTREME.avi
Format : AVI
Format/Info : Audio Video Interleave
Format profile : OpenDML
File size : 3.73 GiB
Duration : 1h 37mn
Overall bit rate : 5 454 Kbps
Writing library : VirtualDub build 31536/release

Video
ID : 0
Format : MPEG-4 Visual
Format profile : Advanced Simple@L5
Format settings, BVOP : 2
Format settings, QPel : No
Format settings, GMC : No warppoints
Format settings, Matrix : Default (H.263)
Muxing mode : Packed bitstream
Codec ID : XVID
Codec ID/Hint : XviD
Duration : 1h 37mn
Bit rate : 4 997 Kbps
Width : 1 280 pixels
Height : 540 pixels
Display aspect ratio : 2.35:1
Frame rate : 23.976 fps
Color space : YUV
Chroma subsampling : 4:2:0
Bit depth : 8 bits
Scan type : Progressive
Compression mode : Lossy
Bits/(Pixel*Frame) : 0.302
Stream size : 3.41 GiB (92%)
Writing library : XviD 64

Audio
ID : 1
Format : AC-3
Format/Info : Audio Coding 3
Mode extension : CM (complete main)
Codec ID : 2000
Duration : 1h 37mn
Bit rate mode : Constant
Bit rate : 448 Kbps
Channel(s) : 6 channels
Channel positions : Front: L C R, Side: L R, LFE
Sampling rate : 48.0 KHz
Bit depth : 16 bits
Compression mode : Lossy
Stream size : 313 MiB (8%)
Alignment : Split accross interleaves
Interleave, duration : 42 ms (1.00 video frame)
Interleave, preload duration : 500 ms

Sources......: Vid - ELEK HD
              AUD - ADTRG



SCREENS: 
http://img210.imageshack.us/img210/5489/epfx9.png 
http://img846.imageshack.us/img846/7458/yer9z.png 
http://img37.imageshack.us/img37/8428/ljclv.png 
http://img194.imageshack.us/img194/4507/gaivg.jpg 
http://img17.imageshack.us/img17/5323/ri19z.png
